<?xml version="1.0" encoding="UTF-8" ?>
<!DOCTYPE svg PUBLIC "-//W3C//DTD SVG 1.1//EN" "http://www.w3.org/Graphics/SVG/1.1/DTD/svg11.dtd">
<svg width="512pt" height="512pt" viewBox="0 0 512 512" version="1.1" xmlns="http://www.w3.org/2000/svg">
<g id="#e44d26ff">
<path fill="#e44d26" opacity="1.00" d=" M 30.28 0.00 L 481.72 0.00 C 468.01 153.57 454.30 307.15 440.59 460.72 C 378.99 477.88 317.35 494.95 255.72 512.00 L 255.67 512.00 C 194.26 494.86 132.81 477.84 71.36 460.81 C 57.67 307.21 43.97 153.61 30.28 0.00 M 256.16 37.96 C 255.67 56.70 256.31 75.45 255.86 94.19 C 208.66 94.23 161.47 94.16 114.27 94.23 C 119.37 151.19 124.41 208.16 129.54 265.12 C 171.67 265.15 213.80 265.12 255.93 265.14 C 256.09 295.18 255.97 325.22 255.97 355.26 C 234.83 350.00 213.83 343.99 192.77 338.36 C 191.50 323.34 190.11 308.34 188.76 293.33 C 169.86 293.33 150.97 293.33 132.07 293.33 C 134.68 322.92 137.32 352.51 139.98 382.10 C 178.54 392.74 217.07 403.49 255.61 414.16 C 256.61 433.63 255.54 453.16 256.14 472.65 C 269.71 469.29 283.12 465.27 296.62 461.60 C 332.10 451.81 367.55 441.88 403.05 432.15 C 404.30 431.92 405.48 431.12 405.52 429.73 C 416.89 302.95 428.16 176.14 439.49 49.34 C 439.85 45.58 440.43 41.81 440.06 38.03 C 436.05 37.55 432.02 37.73 428.00 37.75 C 396.66 37.79 365.32 37.70 333.99 37.77 C 308.05 37.89 282.09 37.46 256.16 37.96 Z" />
<path fill="#e44d26" opacity="1.00" d=" M 176.05 150.74 C 202.67 150.74 229.29 150.72 255.92 150.75 C 256.08 170.02 256.07 189.31 255.88 208.59 C 231.00 208.62 206.11 208.59 181.22 208.60 C 179.47 189.31 177.76 170.02 176.05 150.74 Z" />
</g>
<g id="#f16529ff">
<path fill="#f16529" opacity="1.00" d=" M 256.16 37.96 C 282.09 37.46 308.05 37.89 333.99 37.77 C 365.32 37.70 396.66 37.79 428.00 37.75 C 432.02 37.73 436.05 37.55 440.06 38.03 C 440.43 41.81 439.85 45.58 439.49 49.34 C 428.16 176.14 416.89 302.95 405.52 429.73 C 405.48 431.12 404.30 431.92 403.05 432.15 C 367.55 441.88 332.10 451.81 296.62 461.60 C 283.12 465.27 269.71 469.29 256.14 472.65 C 255.54 453.16 256.61 433.63 255.61 414.16 L 256.05 414.12 C 294.60 403.51 333.14 392.84 371.64 382.08 C 376.82 324.25 381.95 266.43 387.16 208.61 C 343.40 208.57 299.64 208.62 255.88 208.59 C 256.07 189.31 256.08 170.02 255.92 150.75 C 301.38 150.71 346.84 150.75 392.31 150.73 C 393.98 131.88 395.73 113.05 397.36 94.21 C 350.19 94.19 303.02 94.22 255.86 94.19 C 256.31 75.45 255.67 56.70 256.16 37.96 Z" />
<path fill="#f16529" opacity="1.00" d=" M 255.93 265.14 C 279.08 265.13 302.24 265.13 325.39 265.14 C 323.19 289.57 321.04 314.00 318.80 338.42 C 298.06 344.03 277.32 349.70 256.54 355.18 L 255.97 355.26 C 255.97 325.22 256.09 295.18 255.93 265.14 Z" />
</g>
<g id="#ebebebff">
<path fill="#ebebeb" opacity="1.00" d=" M 114.27 94.23 C 161.47 94.16 208.66 94.23 255.86 94.19 C 255.84 113.04 255.73 131.90 255.92 150.75 C 229.29 150.72 202.67 150.74 176.05 150.74 C 177.76 170.02 179.47 189.31 181.22 208.60 C 206.11 208.59 231.00 208.62 255.88 208.59 C 255.82 227.44 255.71 246.29 255.93 265.14 C 213.80 265.12 171.67 265.15 129.54 265.12 C 124.41 208.16 119.37 151.19 114.27 94.23 Z" />
<path fill="#ebebeb" opacity="1.00" d=" M 132.07 293.33 C 150.97 293.33 169.86 293.33 188.76 293.33 C 190.11 308.34 191.50 323.34 192.77 338.36 C 213.83 343.99 234.83 350.00 255.97 355.26 L 256.54 355.18 C 255.86 358.74 255.66 362.36 255.78 365.98 C 256.03 382.02 255.50 398.08 256.05 414.12 L 255.61 414.16 C 217.07 403.49 178.54 392.74 139.98 382.10 C 137.32 352.51 134.68 322.92 132.07 293.33 Z" />
</g>
<g id="#ffffffff">
<path fill="#ffffff" opacity="1.00" d=" M 255.86 94.19 C 303.02 94.22 350.19 94.19 397.36 94.21 C 395.73 113.05 393.98 131.88 392.31 150.73 C 346.84 150.75 301.38 150.71 255.92 150.75 C 255.73 131.90 255.84 113.04 255.86 94.19 Z" />
<path fill="#ffffff" opacity="1.00" d=" M 255.88 208.59 C 299.64 208.62 343.40 208.57 387.16 208.61 C 381.95 266.43 376.82 324.25 371.64 382.08 C 333.14 392.84 294.60 403.51 256.05 414.12 C 255.50 398.08 256.03 382.02 255.78 365.98 C 255.66 362.36 255.86 358.74 256.54 355.18 C 277.32 349.70 298.06 344.03 318.80 338.42 C 321.04 314.00 323.19 289.57 325.39 265.14 C 302.24 265.13 279.08 265.13 255.93 265.14 C 255.71 246.29 255.82 227.44 255.88 208.59 Z" />
</g>
</svg>
